<svg width="18" height="18" viewBox="0 0 18 18" fill="none" xmlns="http://www.w3.org/2000/svg">
<g clip-path="url(#clip0_376_4177)">
<path d="M2.625 18H13.875C14.5723 17.998 15.2403 17.7195 15.7324 17.2255C16.2245 16.7316 16.5006 16.0625 16.5 15.3652V9.7125C16.5 9.51359 16.421 9.32282 16.2803 9.18217C16.1397 9.04152 15.9489 8.9625 15.75 8.9625C15.5511 8.9625 15.3603 9.04152 15.2197 9.18217C15.079 9.32282 15 9.51359 15 9.7125V15.3652C15.001 15.6648 14.8831 15.9526 14.6722 16.1653C14.4613 16.378 14.1746 16.4984 13.875 16.5H2.625C2.32543 16.4984 2.03873 16.378 1.82781 16.1653C1.6169 15.9526 1.499 15.6648 1.5 15.3652V4.13475C1.499 3.83518 1.6169 3.54745 1.82781 3.3347C2.03873 3.12196 2.32543 3.00159 2.625 3H8.25C8.44891 3 8.63968 2.92098 8.78033 2.78033C8.92098 2.63968 9 2.44891 9 2.25C9 2.05109 8.92098 1.86032 8.78033 1.71967C8.63968 1.57902 8.44891 1.5 8.25 1.5H2.625C1.92773 1.50199 1.25973 1.78052 0.767594 2.27448C0.275461 2.76845 -0.000597818 3.43748 9.72081e-07 4.13475V15.3652C-0.000597818 16.0625 0.275461 16.7316 0.767594 17.2255C1.25973 17.7195 1.92773 17.998 2.625 18Z" fill="#61C554"/>
<path d="M7.09136 7.90795L6.49961 10.6184C6.47283 10.7414 6.4774 10.8691 6.51292 10.9898C6.54844 11.1105 6.61376 11.2204 6.70286 11.3092C6.79319 11.3958 6.90307 11.4594 7.02318 11.4945C7.14329 11.5296 7.2701 11.5353 7.39286 11.5109L10.0974 10.9177C10.2378 10.8869 10.3664 10.8163 10.4679 10.7144L17.3034 3.87895C17.5123 3.67001 17.6781 3.42196 17.7912 3.14895C17.9043 2.87594 17.9625 2.58333 17.9625 2.28782C17.9625 1.99232 17.9043 1.69971 17.7912 1.4267C17.6781 1.15369 17.5123 0.905636 17.3034 0.6967C16.8749 0.287302 16.3052 0.0588379 15.7126 0.0588379C15.12 0.0588379 14.5503 0.287302 14.1219 0.6967L7.29686 7.53895C7.19443 7.63972 7.1231 7.7678 7.09136 7.90795ZM15.1824 1.75795C15.325 1.62126 15.515 1.54495 15.7126 1.54495C15.9102 1.54495 16.1002 1.62126 16.2429 1.75795C16.3816 1.89942 16.4593 2.08967 16.4593 2.28782C16.4593 2.48598 16.3816 2.67623 16.2429 2.8177L15.7126 3.34795L14.6521 2.28745L15.1824 1.75795ZM8.50736 8.44345L13.5879 3.3502L14.6379 4.40545L9.55511 9.5002L8.20886 9.7957L8.50736 8.44345Z" fill="#61C554"/>
</g>
<defs>
<clipPath id="clip0_376_4177">
<rect width="18" height="18" fill="white"/>
</clipPath>
</defs>
</svg>
