<svg width="41" height="42" viewBox="0 0 41 42" fill="none" xmlns="http://www.w3.org/2000/svg">
<path d="M19.6038 14.6514L19.4774 27.9382C19.4918 28.3973 19.6822 28.8333 20.0093 29.156C20.3363 29.4786 20.7748 29.6631 21.2341 29.6713C21.6934 29.6795 22.1383 29.5108 22.4766 29.2C22.815 28.8893 23.0208 28.4603 23.0516 28.002L23.2232 12.1848C23.1944 11.2665 22.8135 10.3945 22.1595 9.74921C21.5055 9.10396 20.6283 8.73494 19.7097 8.71854C18.7911 8.70214 17.9014 9.03963 17.2247 9.66112C16.5481 10.2826 16.1363 11.1405 16.0748 12.0572L15.9032 27.8744C15.8778 29.2963 16.4183 30.6701 17.4058 31.6935C18.3933 32.7168 19.7469 33.306 21.1688 33.3314C22.5907 33.3568 23.9645 32.8163 24.9879 31.8288C26.0113 30.8413 26.6005 29.4877 26.6259 28.0658L26.8732 15.0976" stroke="#78787C" stroke-width="1.5" stroke-linecap="round" stroke-linejoin="round"/>
</svg>
