<svg width="22" height="22" viewBox="0 0 22 22" fill="none" xmlns="http://www.w3.org/2000/svg">
<path d="M19.5556 0H2.44444C1.1 0 0 1.1 0 2.44444V19.5556C0 20.9 1.1 22 2.44444 22H19.5556C20.9 22 22 20.9 22 19.5556V2.44444C22 1.1 20.9 0 19.5556 0ZM2.44444 21.0222C1.63778 21.0222 0.977778 20.3622 0.977778 19.5556V17.5511L6.84444 11.22L16.28 21.0222H2.44444ZM21.0222 19.5556C21.0222 20.3622 20.3622 21.0222 19.5556 21.0222H17.6244L10.5844 13.6889L16.0111 8.04222L21.0222 13.4444V19.5556ZM21.0222 12.0022L16.3778 6.99111L16.3533 6.96667C16.3289 6.96667 16.3289 6.94222 16.3044 6.94222C16.3044 6.94222 16.28 6.91778 16.2556 6.91778C16.2311 6.91778 16.2311 6.89333 16.2067 6.89333C16.1822 6.89333 16.1822 6.89333 16.1578 6.86889H15.8644C15.84 6.86889 15.84 6.86889 15.8156 6.89333C15.7911 6.89333 15.7911 6.91778 15.7667 6.91778C15.7422 6.91778 15.7422 6.94222 15.7178 6.94222C15.6933 6.94222 15.6933 6.96667 15.6689 6.96667L15.6444 6.99111L9.9 12.98L7.18667 10.1689C7.18667 10.1689 7.16222 10.1689 7.16222 10.1444C7.13778 10.12 7.13778 10.12 7.11333 10.12C7.11333 10.12 7.08889 10.0956 7.06445 10.0956C7.04 10.0956 7.04 10.0711 7.01556 10.0711C6.99111 10.0711 6.99111 10.0711 6.96667 10.0467H6.67333C6.64889 10.0467 6.64889 10.0467 6.62444 10.0711C6.6 10.0711 6.6 10.0711 6.57556 10.0956C6.55111 10.0956 6.55111 10.12 6.52667 10.12C6.50222 10.12 6.50222 10.1444 6.47778 10.1444C6.47778 10.1444 6.45333 10.1444 6.45333 10.1689L0.977778 16.1089V2.44444C0.977778 1.63778 1.63778 0.977778 2.44444 0.977778H19.5556C20.3622 0.977778 21.0222 1.63778 21.0222 2.44444V12.0022ZM5.37778 2.93333C4.03333 2.93333 2.93333 4.03333 2.93333 5.37778C2.93333 6.72222 4.03333 7.82222 5.37778 7.82222C6.72222 7.82222 7.82222 6.72222 7.82222 5.37778C7.82222 4.03333 6.72222 2.93333 5.37778 2.93333ZM5.37778 6.84444C4.57111 6.84444 3.91111 6.18444 3.91111 5.37778C3.91111 4.57111 4.57111 3.91111 5.37778 3.91111C6.18444 3.91111 6.84444 4.57111 6.84444 5.37778C6.84444 6.18444 6.18444 6.84444 5.37778 6.84444Z" fill="#787678"/>
</svg>
