<svg width="24" height="25" viewBox="0 0 24 25" fill="none" xmlns="http://www.w3.org/2000/svg">
<g id="whatsapp 1" clip-path="url(#clip0_365_2001)">
<path id="Vector" d="M20.5028 3.50311C18.2467 1.24541 15.2467 0.00137747 12.0504 0C5.46397 0 0.103933 5.35833 0.101296 11.9445C0.100528 14.0498 0.650612 16.1048 1.69617 17.9163L0.000976562 24.1061L6.33534 22.4451C8.08057 23.3969 10.0456 23.8984 12.0453 23.8992H12.0504H12.0504C18.6358 23.8992 23.9966 18.54 23.9994 11.9541C24.0005 8.76219 22.7587 5.76096 20.5028 3.50311ZM12.0504 21.8818H12.0465C10.2641 21.8808 8.51623 21.4023 6.99164 20.4976L6.62882 20.2826L2.86988 21.2681L3.87346 17.6045L3.63707 17.2289C2.64283 15.648 2.11795 13.8211 2.1187 11.9452C2.12089 6.47105 6.57594 2.01754 12.0542 2.01754C14.707 2.01865 17.2004 3.05269 19.0756 4.92922C20.9507 6.80573 21.9826 9.30029 21.9818 11.9533C21.9795 17.4277 17.5243 21.8818 12.0504 21.8818Z" fill="#E0E0E0"/>
<path id="Vector_2" d="M0.548828 23.4192L2.16659 17.5122C1.16853 15.7834 0.643677 13.8221 0.644307 11.8134C0.646924 5.5282 5.76216 0.414795 12.0472 0.414795C15.0976 0.416172 17.9606 1.60332 20.1132 3.75794C22.2663 5.91254 23.4513 8.77648 23.4501 11.8223C23.4474 18.1076 18.3319 23.2215 12.0476 23.2215C12.0472 23.2215 12.048 23.2215 12.0476 23.2215H12.0426C10.1342 23.2209 8.25913 22.7418 6.59372 21.8342L0.548828 23.4192Z" fill="url(#paint0_linear_365_2001)"/>
<path id="Vector_3" fill-rule="evenodd" clip-rule="evenodd" d="M9.09765 6.87344C8.87659 6.38194 8.64383 6.3721 8.43351 6.3635C8.26149 6.35612 8.06455 6.35657 7.86792 6.35657C7.67114 6.35657 7.35137 6.43052 7.08096 6.72585C6.81038 7.02118 6.04785 7.73513 6.04785 9.18716C6.04785 10.6393 7.10555 12.0425 7.25298 12.2396C7.40057 12.4364 9.29475 15.5114 12.2946 16.6944C14.7877 17.6775 15.2951 17.482 15.8362 17.4328C16.3774 17.3836 17.5823 16.719 17.8283 16.0298C18.0743 15.3407 18.0743 14.7501 18.0005 14.6266C17.9267 14.5036 17.7299 14.4298 17.4347 14.2822C17.1396 14.1347 15.6886 13.4206 15.418 13.3222C15.1475 13.2238 14.9507 13.1746 14.7539 13.4701C14.5571 13.7652 13.9918 14.4298 13.8196 14.6266C13.6475 14.8239 13.4753 14.8484 13.1801 14.7009C12.8849 14.5528 11.9344 14.2415 10.8067 13.2361C9.92937 12.4539 9.33702 11.4878 9.16483 11.1923C8.99265 10.8971 9.14638 10.7372 9.29443 10.5901C9.42695 10.4579 9.58961 10.2456 9.73719 10.0732C9.88446 9.90091 9.93366 9.77792 10.032 9.58114C10.1304 9.38404 10.0812 9.21172 10.0075 9.06413C9.93366 8.91654 9.36008 7.45701 9.09765 6.87344Z" fill="white"/>
<path id="Vector_4" d="M20.4052 3.4651C18.1749 1.23332 15.2094 0.00359442 12.0498 0.00219727C5.53895 0.00219727 0.240447 5.29901 0.23783 11.8095C0.237063 13.8907 0.780829 15.9221 1.81439 17.7129L0.138672 23.8315L6.40032 22.1896C8.12555 23.1305 10.068 23.6263 12.0447 23.6271H12.0497H12.0498C18.5596 23.6271 23.8588 18.3293 23.8616 11.8191C23.8627 8.66382 22.6351 5.69704 20.4052 3.4651ZM12.0498 21.6328H12.046C10.284 21.6319 8.55616 21.1588 7.04909 20.2646L6.69042 20.0519L2.97463 21.0262L3.96669 17.4046L3.73301 17.0334C2.75018 15.4706 2.23133 13.6647 2.23209 11.8103C2.23424 6.399 6.63815 1.99662 12.0535 1.99662C14.6759 1.9977 17.1406 3.01988 18.9944 4.87486C20.848 6.72985 21.868 9.19576 21.8672 11.8183C21.8649 17.2298 17.4608 21.6328 12.0498 21.6328Z" fill="white"/>
</g>
<defs>
<linearGradient id="paint0_linear_365_2001" x1="11.9995" y1="23.4192" x2="11.9995" y2="0.414833" gradientUnits="userSpaceOnUse">
<stop stop-color="#20B038"/>
<stop offset="1" stop-color="#60D66A"/>
</linearGradient>
<clipPath id="clip0_365_2001">
<rect width="24" height="24.1061" fill="white"/>
</clipPath>
</defs>
</svg>
